#tb 0: 66667/1000000
0,          0,          0,        1,    21600, 0x57a2ba42
0,          1,          1,        1,    21600, 0x61e09615
0,          2,          2,        1,    21600, 0x826e4e63
0,          3,          3,        1,    21600, 0x107716ec
0,          4,          4,        1,    21600, 0xb35ce1f4
0,          5,          5,        1,    21600, 0x12cab085
0,          6,          6,        1,    21600, 0x2f917f69
0,          7,          7,        1,    21600, 0x25aa3d6e
0,          8,          8,        1,    21600, 0xab1bfbed
0,          9,          9,        1,    21600, 0x9936dff9
0,         10,         10,        1,    21600, 0xc23cd8e5
0,         11,         11,        1,    21600, 0xa7ebbcaa
0,         12,         12,        1,    21600, 0xd4dda045
0,         13,         13,        1,    21600, 0xcbce6d7d
0,         14,         14,        1,    21600, 0x3cf35baf
0,         15,         15,        1,    21600, 0x16de6008
0,         16,         16,        1,    21600, 0x49d41acf
0,         17,         17,        1,    21600, 0x8c630034
0,         18,         18,        1,    21600, 0x0b310296
0,         19,         19,        1,    21600, 0x4887067d
0,         20,         20,        1,    21600, 0x1219f29e
0,         21,         21,        1,    21600, 0x3f3fc0c8
0,         22,         22,        1,    21600, 0x1bd1d0fc
0,         23,         23,        1,    21600, 0x913f9d4c
0,         24,         24,        1,    21600, 0x69e9a6b4
0,         25,         25,        1,    21600, 0xcc2e917f
0,         26,         26,        1,    21600, 0xf6967e30
0,         27,         27,        1,    21600, 0xdf816593
0,         28,         28,        1,    21600, 0xfd945b75
0,         29,         29,        1,    21600, 0x7d7e0224
0,         30,         30,        1,    21600, 0x7246f584
0,         31,         31,        1,    21600, 0x07b7ce82
0,         32,         32,        1,    21600, 0xee16c291
0,         33,         33,        1,    21600, 0xf4efb53a
0,         34,         34,        1,    21600, 0x2e73a208
0,         35,         35,        1,    21600, 0x1c2b6068
0,         36,         36,        1,    21600, 0x004250de
0,         37,         37,        1,    21600, 0x61d957d9
0,         38,         38,        1,    21600, 0x8b5d2cb0
0,         39,         39,        1,    21600, 0xc0a91fbc
0,         40,         40,        1,    21600, 0xa38108fc
0,         41,         41,        1,    21600, 0x551f03b9
0,         42,         42,        1,    21600, 0x93def5ca
0,         43,         43,        1,    21600, 0xe8ecf8bb
0,         44,         44,        1,    21600, 0x4c04fbb0
0,         45,         45,        1,    21600, 0x0e41dae4
0,         46,         46,        1,    21600, 0xca9fb0df
0,         47,         47,        1,    21600, 0xb123af19
0,         48,         48,        1,    21600, 0xfd59be7a
0,         49,         49,        1,    21600, 0x2c88b7a6
0,         50,         50,        1,    21600, 0x64cc9a1f
0,         51,         51,        1,    21600, 0x73d6a9ba
0,         52,         52,        1,    21600, 0x79198a11
0,         53,         53,        1,    21600, 0x0d4a8610
0,         54,         54,        1,    21600, 0x352e71bc
0,         55,         55,        1,    21600, 0x08aa627e
0,         56,         56,        1,    21600, 0xbee36e45
0,         57,         57,        1,    21600, 0x30de5c1b
0,         58,         58,        1,    21600, 0x21d75484
0,         59,         59,        1,    21600, 0xe0e91d52
0,         60,         60,        1,    21600, 0x678c2ebb
0,         61,         61,        1,    21600, 0x2080397b
0,         62,         62,        1,    21600, 0x7dbc1333
0,         63,         63,        1,    21600, 0x9c730ad0
0,         64,         64,        1,    21600, 0x4da50f55
0,         65,         65,        1,    21600, 0xdde5eaa7
0,         66,         66,        1,    21600, 0x949ed4fa
0,         67,         67,        1,    21600, 0x5d63bc54
0,         68,         68,        1,    21600, 0xc5dcba4f
0,         69,         69,        1,    21600, 0xd68caee1
0,         70,         70,        1,    21600, 0xf7409fc9
0,         71,         71,        1,    21600, 0x6b0ca3e5
0,         72,         72,        1,    21600, 0xd133a108
0,         73,         73,        1,    21600, 0xf2687b81
0,         74,         74,        1,    21600, 0x6e94645d
0,         75,         75,        1,    21600, 0xff7e7524
0,         76,         76,        1,    21600, 0x8c7255dd
0,         77,         77,        1,    21600, 0x84e979cf
0,         78,         78,        1,    21600, 0xaa4e7127
0,         79,         79,        1,    21600, 0x0b56708c
0,         80,         80,        1,    21600, 0x38f086c4
0,         81,         81,        1,    21600, 0x6a7086f6
0,         82,         82,        1,    21600, 0x57a3619d
0,         83,         83,        1,    21600, 0xee27639a
0,         84,         84,        1,    21600, 0x754b7ec6
0,         85,         85,        1,    21600, 0x2f7b428c
0,         86,         86,        1,    21600, 0x0dc94603
0,         87,         87,        1,    21600, 0xeede54d8
0,         88,         88,        1,    21600, 0x587b4725
0,         89,         89,        1,    21600, 0xe7c72c7a
0,         90,         90,        1,    21600, 0x523949cb
0,         91,         91,        1,    21600, 0xeade5385
0,         92,         92,        1,    21600, 0x1a8f45c8
0,         93,         93,        1,    21600, 0x814a393c
0,         94,         94,        1,    21600, 0xe7b34887
0,         95,         95,        1,    21600, 0x8eef3f5f
0,         96,         96,        1,    21600, 0x56f12f08
0,         97,         97,        1,    21600, 0xb2d02448
0,         98,         98,        1,    21600, 0xb7d936db
0,         99,         99,        1,    21600, 0x45f726ab
0,        100,        100,        1,    21600, 0x6012404d
0,        101,        101,        1,    21600, 0x273c254e
0,        102,        102,        1,    21600, 0x38e82c19
0,        103,        103,        1,    21600, 0x73653274
0,        104,        104,        1,    21600, 0x2ff63b0c
0,        105,        105,        1,    21600, 0x96d03611
0,        106,        106,        1,    21600, 0xee8c29d7
0,        107,        107,        1,    21600, 0xac043199
0,        108,        108,        1,    21600, 0xd2c741a7
0,        109,        109,        1,    21600, 0xdc7b2b81
0,        110,        110,        1,    21600, 0x376f438f
0,        111,        111,        1,    21600, 0x55442ff7
0,        112,        112,        1,    21600, 0x653b1472
0,        113,        113,        1,    21600, 0xc4293779
0,        114,        114,        1,    21600, 0xc6553740
0,        115,        115,        1,    21600, 0xcf441053
0,        116,        116,        1,    21600, 0xb1531bce
0,        117,        117,        1,    21600, 0x145323b3
0,        118,        118,        1,    21600, 0x916c2e9e
0,        119,        119,        1,    21600, 0xb89bfecc
0,        120,        120,        1,    21600, 0x8e2415b9
0,        121,        121,        1,    21600, 0x5af23021
0,        122,        122,        1,    21600, 0x53e81c10
0,        123,        123,        1,    21600, 0xf7f82a6f
0,        124,        124,        1,    21600, 0x851121a2
0,        125,        125,        1,    21600, 0xa8432bd2
0,        126,        126,        1,    21600, 0x1a381799
0,        127,        127,        1,    21600, 0xbb761384
0,        128,        128,        1,    21600, 0xc8f328d5
0,        129,        129,        1,    21600, 0xb3742e8a
